<svg data-v-fde0c5aa="" xmlns="http://www.w3.org/2000/svg" viewBox="0 0 300 300" class="iconLeft"><!----><defs data-v-fde0c5aa=""><!----></defs><rect data-v-fde0c5aa="" fill="transparent" x="0" y="0" width="300px" height="300px" class="logo-background-square"></rect><defs data-v-fde0c5aa=""><!----></defs><g data-v-fde0c5aa="" id="db04264c-c919-4658-b54f-05dffa8254ef" fill="#000000" transform="matrix(2.0854156017303467,0,0,2.0854156017303467,87.89065678339153,136.67419550448227)"><path d="M0.85-0.42L2.73-0.42L2.73 4.41L5.87-0.42L8.13-0.42L5.03 4.02L8.13 10.50L6.05 10.50L3.84 5.71L2.73 7.28L2.73 10.50L0.85 10.50L0.85-0.42ZM11.14 10.50L9.32 10.50L9.32 3.08L11.14 3.08L11.14 10.50ZM9.24-0.18L11.23-0.18L11.23 1.79L9.24 1.79L9.24-0.18ZM15.26 0.98L15.26 3.08L17.32 3.08L17.32 4.68L15.26 4.68L15.26 7.88L15.26 7.88Q15.26 8.58 15.55 8.83L15.55 8.83L15.55 8.83Q15.85 9.09 16.46 9.09L16.46 9.09L16.46 9.09Q16.98 9.09 17.18 8.99L17.18 8.99L17.18 10.50L17.18 10.50Q16.81 10.68 16.03 10.68L16.03 10.68L16.03 10.68Q13.44 10.68 13.44 8.08L13.44 8.08L13.44 4.68L12.31 4.68L12.31 3.08L13.44 3.08L13.44 0.98L15.26 0.98ZM20.20 6.57L20.20 7.01L20.20 7.01Q20.20 9.09 21.70 9.09L21.70 9.09L21.70 9.09Q22.36 9.09 22.69 8.73L22.69 8.73L22.69 8.73Q23.02 8.37 23.02 7.80L23.02 7.80L24.74 7.80L24.74 8.09L24.74 8.09Q24.74 9.23 23.95 9.95L23.95 9.95L23.95 9.95Q23.16 10.68 21.66 10.68L21.66 10.68L21.66 10.68Q20.02 10.68 19.20 9.68L19.20 9.68L19.20 9.68Q18.38 8.68 18.38 7.01L18.38 7.01L18.38 6.57L18.38 6.57Q18.38 4.89 19.20 3.89L19.20 3.89L19.20 3.89Q20.02 2.90 21.66 2.90L21.66 2.90L21.66 2.90Q23.17 2.90 23.95 3.65L23.95 3.65L23.95 3.65Q24.74 4.41 24.74 5.60L24.74 5.60L24.74 5.91L23.02 5.91L23.02 5.91Q23.02 5.24 22.69 4.86L22.69 4.86L22.69 4.86Q22.36 4.48 21.70 4.48L21.70 4.48L21.70 4.48Q20.20 4.48 20.20 6.57L20.20 6.57ZM26.04-0.70L27.86-0.70L27.86 3.84L27.86 3.84Q28.66 2.90 30.10 2.90L30.10 2.90L30.10 2.90Q31.25 2.90 31.82 3.61L31.82 3.61L31.82 3.61Q32.38 4.33 32.38 5.42L32.38 5.42L32.38 10.50L30.58 10.50L30.58 5.71L30.58 5.71Q30.58 5.15 30.28 4.82L30.28 4.82L30.28 4.82Q29.99 4.48 29.40 4.48L29.40 4.48L29.40 4.48Q28.38 4.48 27.86 5.33L27.86 5.33L27.86 10.50L26.04 10.50L26.04-0.70ZM40.33 6.61L40.33 7.46L35.43 7.46L35.43 7.46Q35.53 9.27 37.10 9.27L37.10 9.27L37.10 9.27Q37.80 9.27 38.21 8.93L38.21 8.93L38.21 8.93Q38.61 8.58 38.61 8.12L38.61 8.12L40.33 8.12L40.33 8.18L40.33 8.18Q40.33 9.23 39.47 9.95L39.47 9.95L39.47 9.95Q38.61 10.68 37.09 10.68L37.09 10.68L37.09 10.68Q35.36 10.68 34.49 9.66L34.49 9.66L34.49 9.66Q33.61 8.64 33.61 6.97L33.61 6.97L33.61 6.61L33.61 6.61Q33.61 4.94 34.48 3.92L34.48 3.92L34.48 3.92Q35.35 2.90 37.02 2.90L37.02 2.90L37.02 2.90Q38.65 2.90 39.49 3.92L39.49 3.92L39.49 3.92Q40.33 4.94 40.33 6.61L40.33 6.61ZM36.97 4.31L36.97 4.31L36.97 4.31Q35.55 4.31 35.43 6.12L35.43 6.12L38.50 6.12L38.50 6.12Q38.42 4.31 36.97 4.31ZM48.01 5.42L48.01 10.50L46.20 10.50L46.20 5.71L46.20 5.71Q46.20 5.15 45.91 4.82L45.91 4.82L45.91 4.82Q45.61 4.48 45.02 4.48L45.02 4.48L45.02 4.48Q44.00 4.48 43.48 5.33L43.48 5.33L43.48 10.50L41.66 10.50L41.66 5.18L41.54 3.08L43.15 3.08L43.32 4.06L43.32 4.06Q44.11 2.90 45.72 2.90L45.72 2.90L45.72 2.90Q46.87 2.90 47.44 3.61L47.44 3.61L47.44 3.61Q48.01 4.33 48.01 5.42L48.01 5.42ZM55.59 5.74L55.59 5.74L55.59 5.74Q53.80 5.50 52.98 4.77L52.98 4.77L52.98 4.77Q52.15 4.05 52.15 2.70L52.15 2.70L52.15 2.56L52.15 2.56Q52.15 1.11 53.14 0.25L53.14 0.25L53.14 0.25Q54.12-0.60 55.89-0.60L55.89-0.60L55.89-0.60Q57.81-0.60 58.71 0.31L58.71 0.31L58.71 0.31Q59.61 1.22 59.61 3.08L59.61 3.08L59.61 3.40L57.74 3.40L57.74 3.40Q57.74 2.17 57.30 1.60L57.30 1.60L57.30 1.60Q56.87 1.04 55.90 1.04L55.90 1.04L55.78 1.04L55.78 1.04Q55.01 1.04 54.54 1.43L54.54 1.43L54.54 1.43Q54.07 1.82 54.07 2.46L54.07 2.46L54.07 2.55L54.07 2.55Q54.07 3.26 54.52 3.64L54.52 3.64L54.52 3.64Q54.96 4.02 56.20 4.19L56.20 4.19L56.20 4.19Q58.02 4.44 58.86 5.15L58.86 5.15L58.86 5.15Q59.71 5.87 59.71 7.28L59.71 7.28L59.71 7.43L59.71 7.43Q59.71 8.97 58.71 9.83L58.71 9.83L58.71 9.83Q57.71 10.68 55.89 10.68L55.89 10.68L55.89 10.68Q52.05 10.68 52.05 6.96L52.05 6.96L52.05 6.82L53.93 6.82L53.93 6.82Q53.93 9.04 55.82 9.04L55.82 9.04L55.94 9.04L55.94 9.04Q56.81 9.04 57.30 8.62L57.30 8.62L57.30 8.62Q57.79 8.20 57.79 7.50L57.79 7.50L57.79 7.42L57.79 7.42Q57.79 6.69 57.30 6.30L57.30 6.30L57.30 6.30Q56.81 5.91 55.59 5.74ZM67.12 10.50L65.51 10.50L65.37 9.65L65.37 9.65Q64.47 10.68 62.94 10.68L62.94 10.68L62.94 10.68Q61.82 10.68 61.26 10.07L61.26 10.07L61.26 10.07Q60.70 9.45 60.70 8.50L60.70 8.50L60.70 8.36L60.70 8.36Q60.70 7.24 61.38 6.73L61.38 6.73L61.38 6.73Q62.06 6.22 63.29 6.03L63.29 6.03L65.18 5.74L65.18 5.71L65.18 5.71Q65.18 4.98 64.91 4.65L64.91 4.65L64.91 4.65Q64.64 4.31 63.95 4.31L63.95 4.31L63.95 4.31Q62.72 4.31 62.72 5.53L62.72 5.53L60.98 5.53L60.98 5.40L60.98 5.40Q60.98 4.33 61.68 3.61L61.68 3.61L61.68 3.61Q62.37 2.90 63.99 2.90L63.99 2.90L63.99 2.90Q65.65 2.90 66.32 3.61L66.32 3.61L66.32 3.61Q67.00 4.33 67.00 5.71L67.00 5.71L67.00 8.40L67.12 10.50ZM63.57 9.18L63.57 9.18L63.57 9.18Q64.61 9.18 65.18 8.41L65.18 8.41L65.18 6.85L63.63 7.10L63.63 7.10Q62.52 7.28 62.52 8.16L62.52 8.16L62.52 8.27L62.52 8.27Q62.52 8.65 62.79 8.92L62.79 8.92L62.79 8.92Q63.06 9.18 63.57 9.18ZM73.02 10.39L73.02 10.39L73.02 9.35L73.02 9.35Q72.31 10.21 71.05 10.21L71.05 10.21L71.05 10.21Q69.62 10.21 68.94 9.28L68.94 9.28L68.94 9.28Q68.26 8.36 68.26 6.73L68.26 6.73L68.26 6.37L68.26 6.37Q68.26 4.80 68.95 3.85L68.95 3.85L68.95 3.85Q69.64 2.90 71.05 2.90L71.05 2.90L71.05 2.90Q72.49 2.90 73.19 3.99L73.19 3.99L73.35 3.08L74.96 3.08L74.84 5.18L74.84 10.42L74.84 10.42Q74.84 13.48 71.58 13.48L71.58 13.48L71.58 13.48Q69.90 13.48 69.15 12.74L69.15 12.74L69.15 12.74Q68.40 12.00 68.40 10.77L68.40 10.77L68.40 10.50L70.13 10.50L70.13 10.50Q70.13 11.23 70.45 11.61L70.45 11.61L70.45 11.61Q70.77 11.98 71.54 11.98L71.54 11.98L71.54 11.98Q72.32 11.98 72.67 11.61L72.67 11.61L72.67 11.61Q73.02 11.23 73.02 10.39ZM73.02 7.78L73.02 7.78L73.02 5.33L73.02 5.33Q72.48 4.48 71.55 4.48L71.55 4.48L71.55 4.48Q70.84 4.48 70.46 4.99L70.46 4.99L70.46 4.99Q70.08 5.50 70.08 6.37L70.08 6.37L70.08 6.73L70.08 6.73Q70.08 8.62 71.55 8.62L71.55 8.62L71.55 8.62Q72.46 8.62 73.02 7.78ZM82.53 10.50L80.92 10.50L80.78 9.65L80.78 9.65Q79.88 10.68 78.36 10.68L78.36 10.68L78.36 10.68Q77.24 10.68 76.68 10.07L76.68 10.07L76.68 10.07Q76.12 9.45 76.12 8.50L76.12 8.50L76.12 8.36L76.12 8.36Q76.12 7.24 76.80 6.73L76.80 6.73L76.80 6.73Q77.48 6.22 78.71 6.03L78.71 6.03L80.60 5.74L80.60 5.71L80.60 5.71Q80.60 4.98 80.32 4.65L80.32 4.65L80.32 4.65Q80.05 4.31 79.37 4.31L79.37 4.31L79.37 4.31Q78.13 4.31 78.13 5.53L78.13 5.53L76.40 5.53L76.40 5.40L76.40 5.40Q76.40 4.33 77.09 3.61L77.09 3.61L77.09 3.61Q77.78 2.90 79.41 2.90L79.41 2.90L79.41 2.90Q81.06 2.90 81.74 3.61L81.74 3.61L81.74 3.61Q82.42 4.33 82.42 5.71L82.42 5.71L82.42 8.40L82.53 10.50ZM78.99 9.18L78.99 9.18L78.99 9.18Q80.02 9.18 80.60 8.41L80.60 8.41L80.60 6.85L79.04 7.10L79.04 7.10Q77.94 7.28 77.94 8.16L77.94 8.16L77.94 8.27L77.94 8.27Q77.94 8.65 78.20 8.92L78.20 8.92L78.20 8.92Q78.47 9.18 78.99 9.18Z"></path></g><defs data-v-fde0c5aa=""><linearGradient data-v-fde0c5aa="" gradientTransform="rotate(25)" id="cf170e4e-1c31-4245-b693-c5577572ff94" x1="0%" y1="0%" x2="100%" y2="0%"><stop data-v-fde0c5aa="" offset="0%" stop-color="#421E56" stop-opacity="1"></stop><stop data-v-fde0c5aa="" offset="100%" stop-color="#BC6083" stop-opacity="1"></stop></linearGradient></defs><g data-v-fde0c5aa="" id="baa18558-d4dd-4bb9-83c2-c859b0ddfd9f" stroke="none" fill="url(#cf170e4e-1c31-4245-b693-c5577572ff94)" transform="matrix(0.8849232196807861,0,0,0.8849232196807861,14.085916825819375,105.75427668784688)"><path d="M70.715 51.872c0-5.887-2.475-11.201-6.434-14.973V26.444a1.5 1.5 0 0 0-1.286-1.485c-.294-.041-1.862-.177-3.643 1.365-1.41 1.222-2.554 3.134-3.433 5.718A20.379 20.379 0 0 0 50 31.157c-.62 0-1.23.04-1.836.097V26.444a1.5 1.5 0 1 0-3 0v8.773c0 4.287-2.774 7.774-6.184 7.774s-6.185-3.487-6.185-7.774v-8.772a1.5 1.5 0 1 0-3 0v8.772c0 2.555.766 4.902 2.037 6.75a20.447 20.447 0 0 0-2.548 9.905c0 6.715 3.227 12.677 8.195 16.464v5.226a1.5 1.5 0 1 0 3 0V70.25a20.577 20.577 0 0 0 20.801-1.029v4.341a1.5 1.5 0 1 0 3 0v-6.723c3.956-3.775 6.435-9.082 6.435-14.967zm-38.668 0c0-2.776.649-5.396 1.785-7.739a8.416 8.416 0 0 0 3.649 1.701v18.881c-3.347-3.263-5.434-7.811-5.434-12.843zM50 69.825a17.822 17.822 0 0 1-9.52-2.759V45.833c4.351-.844 7.684-5.277 7.684-10.617v-1.188A17.109 17.109 0 0 1 50 33.919c1.797 0 3.529.272 5.165.771-.933 3.954-1.402 9.068-1.402 15.313 0 2.978 1.107 8.016 5.259 8.016a1.5 1.5 0 1 0 0-3c-1.861 0-2.255-3.958-2.259-5.016 0-6.54.535-11.135 1.272-14.368.236-.963.501-1.843.72-2.51l-.022-.01c.798-2.388 1.694-3.667 2.389-4.343.054-.053.108-.103.16-.149v37.196A17.867 17.867 0 0 1 50 69.825zm14.281-28.801a17.83 17.83 0 0 1 3.672 10.848c0 4.072-1.378 7.819-3.672 10.834V41.024z"></path><path d="M36.48 40.462a1.5 1.5 0 0 0 1.5-1.5V26.444a1.5 1.5 0 1 0-3 0v12.518a1.5 1.5 0 0 0 1.5 1.5zM41.391 40.462a1.5 1.5 0 0 0 1.5-1.5V26.444a1.5 1.5 0 1 0-3 0v12.518a1.5 1.5 0 0 0 1.5 1.5z"></path></g><!----></svg>